<svg width="39" height="25" viewBox="0 0 39 25" fill="none" xmlns="http://www.w3.org/2000/svg">
<path d="M28.1492 12.4535L21.2168 24.4607H21.046L28.0638 12.3043L28.1492 12.4535Z" fill="url(#paint0_linear_189_2548)"/>
<path d="M8.756 0.460693L1.13538 13.6602L0.442383 12.4607L7.3712 0.460693H8.756Z" fill="url(#paint1_linear_189_2548)"/>
<path d="M10.9505 0.460693L2.23264 15.56L1.58776 14.4459V14.4447L9.66196 0.460693H10.9505Z" fill="url(#paint2_linear_189_2548)"/>
<path d="M13.1414 0.460693L3.32748 17.4585L2.73555 16.431L11.9563 0.460693H13.1414Z" fill="url(#paint3_linear_189_2548)"/>
<path d="M15.3359 0.460693L4.42474 19.3582L3.88333 18.4186L14.2507 0.460693H15.3359Z" fill="url(#paint4_linear_189_2548)"/>
<path d="M17.5292 0.460693L5.52199 21.258L5.02991 20.4062L16.5451 0.460693H17.5292Z" fill="url(#paint5_linear_189_2548)"/>
<path d="M19.7225 0.460693L6.61804 23.1565L6.1777 22.3925L18.8394 0.460693H19.7225Z" fill="url(#paint6_linear_189_2548)"/>
<path d="M21.5717 1.05624L8.05818 24.4607H7.3712L7.32428 24.3813V24.3801L21.1338 0.460693H21.2276L21.5717 1.05624Z" fill="url(#paint7_linear_189_2548)"/>
<path d="M22.6666 2.95478L10.2515 24.4607H9.57292L22.3285 2.36765L22.6666 2.95478Z" fill="url(#paint8_linear_189_2548)"/>
<path d="M23.7638 4.85452L12.4436 24.4607H11.8685L23.4763 4.35642L23.7638 4.85452Z" fill="url(#paint9_linear_189_2548)"/>
<path d="M24.8599 6.75426L14.6369 24.4607H14.1617L24.6229 6.34279L24.8599 6.75426Z" fill="url(#paint10_linear_189_2548)"/>
<path d="M25.9571 8.65279V8.654L16.8302 24.4607H16.456L25.7694 8.32915L25.9571 8.65279Z" fill="url(#paint11_linear_189_2548)"/>
<path d="M27.0532 10.5525L19.0235 24.4607H18.7504L26.916 10.3167L27.0532 10.5525Z" fill="url(#paint12_linear_189_2548)"/>
<path d="M28.154 12.4607L21.2276 24.4607H21.2168L28.1492 12.4535L28.154 12.4607Z" fill="url(#paint13_linear_189_2548)"/>
<path fill-rule="evenodd" clip-rule="evenodd" d="M23.0382 11.9662C22.4058 11.9662 21.8245 11.8193 21.2944 11.5255C20.7642 11.2253 20.3426 10.8133 20.0296 10.2895C19.723 9.75928 19.5697 9.16203 19.5697 8.49771C19.5697 7.83338 19.723 7.23932 20.0296 6.71553C20.3426 6.18535 20.7642 5.77334 21.2944 5.47951C21.8245 5.18567 22.4058 5.03875 23.0382 5.03875C23.677 5.03875 24.2583 5.18567 24.782 5.47951C25.3122 5.77334 25.7306 6.18535 26.0372 6.71553C26.3438 7.23932 26.4972 7.83338 26.4972 8.49771C26.4972 9.16203 26.3438 9.75928 26.0372 10.2895C25.7306 10.8133 25.3122 11.2253 24.782 11.5255C24.2519 11.8193 23.6706 11.9662 23.0382 11.9662ZM23.0382 10.2224C23.5173 10.2224 23.8942 10.0659 24.1688 9.75289C24.4499 9.4399 24.5904 9.0215 24.5904 8.49771C24.5904 7.96114 24.4499 7.53955 24.1688 7.23294C23.8942 6.91994 23.5173 6.76344 23.0382 6.76344C22.5527 6.76344 22.1727 6.91994 21.898 7.23294C21.6233 7.53955 21.486 7.96114 21.486 8.49771C21.486 9.02789 21.6233 9.44948 21.898 9.76248C22.1727 10.0691 22.5527 10.2224 23.0382 10.2224Z" fill="#E4E4E4"/>
<path d="M30.0102 11.9662C29.2245 11.9662 28.5793 11.781 28.0747 11.4105C27.57 11.0336 27.2986 10.4971 27.2602 9.8008H29.2628C29.282 10.0371 29.3522 10.2096 29.4736 10.3182C29.595 10.4268 29.7515 10.4811 29.9431 10.4811C30.1156 10.4811 30.2561 10.4396 30.3647 10.3565C30.4797 10.2671 30.5371 10.1457 30.5371 9.99243C30.5371 9.79441 30.4445 9.64111 30.2593 9.53252C30.074 9.42393 29.7738 9.30256 29.3586 9.16842C28.9179 9.0215 28.5601 8.88097 28.2855 8.74683C28.0172 8.6063 27.7808 8.40508 27.5764 8.14319C27.3784 7.8749 27.2794 7.52677 27.2794 7.09879C27.2794 6.66443 27.388 6.29394 27.6052 5.98733C27.8224 5.67433 28.1226 5.43799 28.5058 5.27829C28.8891 5.1186 29.3235 5.03875 29.8089 5.03875C30.5946 5.03875 31.2206 5.224 31.6869 5.59449C32.1596 5.95859 32.4119 6.4728 32.4439 7.13712H30.403C30.3966 6.93271 30.3327 6.77941 30.2114 6.6772C30.0964 6.575 29.9463 6.5239 29.761 6.5239C29.6205 6.5239 29.5055 6.56542 29.4161 6.64846C29.3267 6.7315 29.282 6.84967 29.282 7.00298C29.282 7.13073 29.3299 7.24252 29.4257 7.33833C29.5279 7.42776 29.6524 7.50761 29.7994 7.57787C29.9463 7.64175 30.1635 7.72479 30.4509 7.82699C30.8789 7.97391 31.2302 8.12083 31.5049 8.26775C31.7859 8.40828 32.0255 8.60949 32.2235 8.87139C32.4279 9.1269 32.5301 9.45267 32.5301 9.84871C32.5301 10.2511 32.4279 10.612 32.2235 10.9314C32.0255 11.2508 31.7348 11.5031 31.3516 11.6884C30.9747 11.8736 30.5276 11.9662 30.0102 11.9662Z" fill="#E4E4E4"/>
<path d="M38.7539 6.63886V5.14413H33.2924V6.63886H35.0746V11.8991H36.9526V6.63886H38.7539Z" fill="#E4E4E4"/>
<path d="M32.343 19.7697L31.0304 17.863L29.9093 19.7697H27.7726L29.9668 16.3108L27.696 13.0147H29.9093L31.0317 14.6518L31.0311 14.6522L34.5564 19.7697H32.343Z" fill="#E4E4E4"/>
<path d="M32.4579 16.0852L34.4127 13.0147H32.276L31.3912 14.5204L32.4579 16.0852Z" fill="#E4E4E4"/>
<path d="M24.3728 15.6209V14.519H26.8161V13.0147H22.4948V19.7697H26.8161V18.2654H24.3728V17.0485H24.3781V15.6209H24.3728Z" fill="#E4E4E4"/>
<path d="M26.5287 17.0485H24.7499V15.6209H26.5287V17.0485Z" fill="#E4E4E4"/>
<path d="M21.159 13.0147V19.7697H19.281V17.0581H17.3641V15.5538H19.281V13.0147H21.159Z" fill="#E4E4E4"/>
<path d="M16.9924 15.5538H16.991V13.0147H15.113V19.7697H16.991V17.0581H16.9924V15.5538Z" fill="#E4E4E4"/>
<path d="M19.0694 10.4619H16.971V5.14413H15.093V11.8991H19.0694V10.4619Z" fill="#E4E4E4"/>
<defs>
<linearGradient id="paint0_linear_189_2548" x1="10.204" y1="0.518522" x2="31.1241" y2="33.8547" gradientUnits="userSpaceOnUse">
<stop stop-color="#764BA2"/>
<stop offset="0.548334" stop-color="#667EEA"/>
<stop offset="1" stop-color="#667EEA" stop-opacity="0"/>
</linearGradient>
<linearGradient id="paint1_linear_189_2548" x1="10.204" y1="0.518522" x2="31.1241" y2="33.8547" gradientUnits="userSpaceOnUse">
<stop stop-color="#764BA2"/>
<stop offset="0.548334" stop-color="#667EEA"/>
<stop offset="1" stop-color="#667EEA" stop-opacity="0"/>
</linearGradient>
<linearGradient id="paint2_linear_189_2548" x1="10.204" y1="0.518522" x2="31.1241" y2="33.8547" gradientUnits="userSpaceOnUse">
<stop stop-color="#764BA2"/>
<stop offset="0.548334" stop-color="#667EEA"/>
<stop offset="1" stop-color="#667EEA" stop-opacity="0"/>
</linearGradient>
<linearGradient id="paint3_linear_189_2548" x1="10.204" y1="0.518522" x2="31.1241" y2="33.8547" gradientUnits="userSpaceOnUse">
<stop stop-color="#764BA2"/>
<stop offset="0.548334" stop-color="#667EEA"/>
<stop offset="1" stop-color="#667EEA" stop-opacity="0"/>
</linearGradient>
<linearGradient id="paint4_linear_189_2548" x1="10.204" y1="0.518522" x2="31.1241" y2="33.8547" gradientUnits="userSpaceOnUse">
<stop stop-color="#764BA2"/>
<stop offset="0.548334" stop-color="#667EEA"/>
<stop offset="1" stop-color="#667EEA" stop-opacity="0"/>
</linearGradient>
<linearGradient id="paint5_linear_189_2548" x1="10.204" y1="0.518522" x2="31.1241" y2="33.8547" gradientUnits="userSpaceOnUse">
<stop stop-color="#764BA2"/>
<stop offset="0.548334" stop-color="#667EEA"/>
<stop offset="1" stop-color="#667EEA" stop-opacity="0"/>
</linearGradient>
<linearGradient id="paint6_linear_189_2548" x1="10.204" y1="0.518522" x2="31.1241" y2="33.8547" gradientUnits="userSpaceOnUse">
<stop stop-color="#764BA2"/>
<stop offset="0.548334" stop-color="#667EEA"/>
<stop offset="1" stop-color="#667EEA" stop-opacity="0"/>
</linearGradient>
<linearGradient id="paint7_linear_189_2548" x1="10.204" y1="0.518522" x2="31.1241" y2="33.8547" gradientUnits="userSpaceOnUse">
<stop stop-color="#764BA2"/>
<stop offset="0.548334" stop-color="#667EEA"/>
<stop offset="1" stop-color="#667EEA" stop-opacity="0"/>
</linearGradient>
<linearGradient id="paint8_linear_189_2548" x1="10.204" y1="0.518522" x2="31.1241" y2="33.8547" gradientUnits="userSpaceOnUse">
<stop stop-color="#764BA2"/>
<stop offset="0.548334" stop-color="#667EEA"/>
<stop offset="1" stop-color="#667EEA" stop-opacity="0"/>
</linearGradient>
<linearGradient id="paint9_linear_189_2548" x1="10.204" y1="0.518522" x2="31.1241" y2="33.8547" gradientUnits="userSpaceOnUse">
<stop stop-color="#764BA2"/>
<stop offset="0.548334" stop-color="#667EEA"/>
<stop offset="1" stop-color="#667EEA" stop-opacity="0"/>
</linearGradient>
<linearGradient id="paint10_linear_189_2548" x1="10.204" y1="0.518522" x2="31.1241" y2="33.8547" gradientUnits="userSpaceOnUse">
<stop stop-color="#764BA2"/>
<stop offset="0.548334" stop-color="#667EEA"/>
<stop offset="1" stop-color="#667EEA" stop-opacity="0"/>
</linearGradient>
<linearGradient id="paint11_linear_189_2548" x1="10.204" y1="0.518522" x2="31.1241" y2="33.8547" gradientUnits="userSpaceOnUse">
<stop stop-color="#764BA2"/>
<stop offset="0.548334" stop-color="#667EEA"/>
<stop offset="1" stop-color="#667EEA" stop-opacity="0"/>
</linearGradient>
<linearGradient id="paint12_linear_189_2548" x1="10.204" y1="0.518522" x2="31.1241" y2="33.8547" gradientUnits="userSpaceOnUse">
<stop stop-color="#764BA2"/>
<stop offset="0.548334" stop-color="#667EEA"/>
<stop offset="1" stop-color="#667EEA" stop-opacity="0"/>
</linearGradient>
<linearGradient id="paint13_linear_189_2548" x1="10.204" y1="0.518522" x2="31.1241" y2="33.8547" gradientUnits="userSpaceOnUse">
<stop stop-color="#764BA2"/>
<stop offset="0.548334" stop-color="#667EEA"/>
<stop offset="1" stop-color="#667EEA" stop-opacity="0"/>
</linearGradient>
</defs>
</svg>
